
<svg width="58px" height="59px" viewBox="0 0 58 59" version="1.1" xmlns="http://www.w3.org/2000/svg" xmlns:xlink="http://www.w3.org/1999/xlink">
    <g id="Welcome" stroke="none" stroke-width="1" fill="none" fill-rule="evenodd">
        <g id="Desktop-Copy" transform="translate(-790.000000, -50.000000)" stroke-width="2">
            <g id="linked-in" transform="translate(791.000000, 51.500000)">
                <path d="M0,56 L0,17.9622642 L11.6041733,17.9622642 L11.6041733,56 L0,56 Z M6.32954909,12.6792453 C2.83383565,12.6792453 0,9.84089955 0,6.33962264 C0,2.83834574 2.83383565,0 6.32954909,0 C9.82526252,0 12.6590982,2.83834574 12.6590982,6.33962264 C12.6590982,9.84089955 9.82526252,12.6792453 6.32954909,12.6792453 Z" id="Shape" stroke="#3681C1" fill="#D8D8D8"></path>
                <path d="" id="Path-29" stroke="#0E87E4" fill="#D8D8D8"></path>
                <path d="M30.5928206,17.9622642 C30.5928206,21.836478 30.5928206,23.7735849 30.5928206,23.7735849" id="Path-32" stroke="#0E87E4" fill="#D8D8D8"></path>
                <path d="M19.5161097,17.9622642 L19.5161097,56 L31.120283,56 C31.0797291,51.9658752 31.0797291,48.9721645 31.120283,47.0188679 C31.2879129,38.9449045 31.3188818,33.3678286 32.1752079,31.1698113 C33.360278,28.1279737 35.9899968,28 37.9772945,28 C39.9348002,28 42.7114242,28.2184919 43.7793812,31.1698113 C44.5130528,33.1973266 44.7733406,37.2859717 44.834306,44.3773585 C44.8534134,46.5998868 44.8534134,50.4741006 44.834306,56 L55.9110169,56 L55.9110169,30.6415094 C55.5593753,23.245283 52.0429592,19.0188679 45.3617685,17.9622642 C38.6805778,16.9056604 33.7575951,18.8427673 30.5928206,23.7735849 L30.5928206,17.9622642" id="Path-33" stroke="#3681C1" fill="#D8D8D8"></path>
                <polyline id="Path-31" stroke="#0E87E4" points="19.5161097 18.490566 19.5161097 17.4339623 30.5928206 17.4339623 30.5928206 19.0188679"></polyline>
            </g>
        </g>
    </g>
</svg>