
<svg width="74px" height="52px" viewBox="0 0 74 52" version="1.1" xmlns="http://www.w3.org/2000/svg" xmlns:xlink="http://www.w3.org/1999/xlink">
    <g id="Welcome" stroke="none" stroke-width="1" fill="none" fill-rule="evenodd">
        <g id="Desktop-Copy" transform="translate(-881.000000, -56.000000)" fill="#D8D8D8" stroke="#3681C1" stroke-width="2">
            <path d="M948.113589,103.467494 C951.590454,100.322071 953.31183,93.1653787 953.12502,81.9744379 C953.431192,70.0007476 951.847033,62.7957834 948.615887,60.4354991 C945.044808,57.8269005 941.605314,57.4374791 928.893363,57.550982 C925.886478,57.57783 924.203523,57.5858156 922.174063,57.5749693 C921.866047,57.5733231 920.559996,57.5730479 918.396373,57.5737143 C917.728202,57.5739341 917.728202,57.5739341 917.08385,57.5741822 C915.621548,57.5747832 915.090133,57.5749836 914.777855,57.5749836 C913.785154,57.5749836 913.201315,57.5690157 910.655695,57.5374148 C906.677563,57.4880308 904.419985,57.4827648 901.877502,57.542884 C893.886195,57.7318452 888.537555,58.609022 886.321516,60.4049069 C883.451661,62.7306469 881.93372,69.9720132 882.002108,81.9822292 C882.11153,88.1386946 882.293328,92.2373692 882.54314,94.2433799 C882.567987,94.4429036 882.652842,95.132556 882.669209,95.2643957 C883.264751,100.061739 883.932408,101.822675 886.265525,103.456527 C889.358054,105.622185 893.318211,106.248729 901.857419,106.312745 C904.367035,106.331559 908.673559,106.331559 914.805552,106.313101 C923.788155,106.561989 930.126976,106.561989 933.802373,106.314968 C941.909471,105.770096 945.175882,105.223679 948.113589,103.467494 Z M908.840205,68.7120941 L930.993639,81.583744 L908.840205,94.4553938 L908.840205,68.7120941 Z" id="YouTube-vector"></path>
        </g>
    </g>
</svg>