
<svg width="65px" height="57px" viewBox="0 0 65 57" version="1.1" xmlns="http://www.w3.org/2000/svg" xmlns:xlink="http://www.w3.org/1999/xlink">
    <g id="Welcome" stroke="none" stroke-width="1" fill="none" fill-rule="evenodd">
        <g id="Desktop-Copy" transform="translate(-678.000000, -56.000000)" fill="#D8D8D8" stroke="#3681C1" stroke-width="2">
            <g id="shape" transform="translate(679.411765, 56.500000)">
                <path d="M61.5080522,10.9636801 C61.5629114,10.9818588 61.6097645,11.0462137 61.6396717,11.1890625 C61.6930591,11.4440626 61.6930591,12.2396221 61.6396717,13.575741 L61.0591667,53.8573349 C61.2111828,54.6453642 61.2111828,55.0890462 61.0591667,55.1883811 C60.9071507,55.2877159 60.4502869,55.1425713 59.6885754,54.7529472 L43.2516068,46.0834422 C42.7860702,46.0270706 42.5245954,45.8412378 42.4671825,45.5259439 C42.4097696,45.21065 42.5655225,44.8158912 42.9344412,44.3416676 L57.8641528,17.4771152 L41.8217158,44.7690892 L28.1996241,22.3844352 L38.7303606,4.00135287 C39.7562083,2.07737843 40.495867,1.06621129 40.9493368,0.967851461 C41.4028066,0.869491632 43.0509911,1.59961765 45.8938902,3.15822951 L58.3467654,8.86590908 C60.3824502,9.74449723 61.4445276,10.3484867 61.5329978,10.6778774 C61.5499405,10.7409582 61.5416253,10.8362258 61.5080522,10.9636801 Z M0.649641479,45.0173093 C0.231132022,44.4150812 0.0920123377,43.776101 0.232282425,43.1003686 L0.232282425,5.33035095 C0.303009403,2.71191618 0.442129088,1.33381308 0.649641479,1.19604166 C0.85715387,1.05827023 2.05312219,1.63847657 4.23754643,2.93666067 L17.7635527,9.50406051 C19.3612474,10.1842487 20.2803148,10.8897531 20.520755,11.6205739 C20.7611953,12.3513947 20.7434288,13.472625 20.4674557,14.984265 L20.2166136,53.5197127 C20.2684679,54.020746 20.2684679,54.3430003 20.2166136,54.4864758 C20.0526668,54.9400996 19.680269,54.9993485 19.6696306,55.0018429 C19.5896217,55.0206028 19.282263,54.8488138 18.7475544,54.4864758 L2.26484155,46.3669272 C1.60655096,46.0694101 1.06815094,45.6195374 0.649641479,45.0173093 Z M61.5080522,10.9636801 C61.3568508,10.9135766 61.144831,11.2142498 61.0591667,11.1890625 C60.8591975,11.1302668 60.5169096,11.9258263 60.0323033,13.575741 L57.8641528,17.4771152 L59.732327,14.2989097 C60.7744072,12.6135012 61.3663156,11.501758 61.5080522,10.9636801 Z M40.9842749,44.8097151 L20.7461194,34.5793238 L21.2668276,12.8666517 L40.9842749,44.8097151 Z" id="Medium-vector"></path>
            </g>
        </g>
    </g>
</svg>